<?xml version="1.0" standalone="no"?>
<!DOCTYPE svg PUBLIC "-//W3C//DTD SVG 20010904//EN"
 "http://www.w3.org/TR/2001/REC-SVG-20010904/DTD/svg10.dtd">
<svg version="1.0" xmlns="http://www.w3.org/2000/svg"
 width="512.000000pt" height="512.000000pt" viewBox="0 0 512.000000 512.000000"
 preserveAspectRatio="xMidYMid meet">
<metadata>
Created by potrace 1.14, written by Peter Selinger 2001-2017
</metadata>
<g transform="translate(0.000000,512.000000) scale(0.100000,-0.100000)"
fill="#000000" stroke="none">
<path d="M297 5109 c-96 -23 -205 -106 -247 -189 -53 -103 -50 33 -50 -2370
l1 -2235 31 -73 c39 -94 104 -162 195 -205 l68 -32 1750 -2 c1528 -3 1756 -1
1799 12 130 40 227 135 266 262 11 35 19 67 19 71 -1 4 -1 35 0 69 l1 62 104
-2 c57 -1 108 -5 112 -10 4 -4 7 -96 7 -204 -2 -205 5 -242 43 -257 10 -4 103
-6 208 -6 164 1 200 4 251 22 108 36 180 103 233 216 l27 57 3 593 3 592 -27
25 c-15 14 -33 25 -40 25 -11 0 -14 18 -14 74 0 70 1 74 25 80 59 15 56 -90
53 1597 l-3 1544 -27 58 c-37 79 -78 129 -141 170 -88 58 -122 64 -338 66
-107 1 -203 -1 -212 -5 -38 -14 -45 -53 -45 -225 0 -90 -1 -183 -1 -205 l-1
-42 -104 2 c-57 0 -107 3 -109 6 -3 3 -6 34 -8 70 -6 168 -87 296 -229 364
l-65 31 -1750 2 c-999 0 -1766 -3 -1788 -8z m4054 -1486 c1 -47 1 -2073 0
-2090 -1 -10 -30 -13 -111 -13 l-110 0 0 670 c0 729 1 720 -55 734 -24 6 -25
9 -25 81 0 61 3 75 15 75 9 0 27 11 40 25 l25 24 0 266 0 265 110 0 110 0 1
-37z"/>
</g>
</svg>
